<svg width="194" height="63" viewBox="0 0 194 63" fill="none" xmlns="http://www.w3.org/2000/svg">
<path d="M10.29 1.01001H0V61.21H10.29V1.01001Z" fill="black"/>
<path d="M56.33 34.72C54.8503 33.2048 53.2031 31.8628 51.42 30.72C49.5467 29.52 47.5667 28.3733 45.48 27.28C43.4333 26.38 41.6333 25.5467 40.08 24.78C38.6775 24.1131 37.3386 23.3198 36.08 22.41C35.0896 21.6884 34.2561 20.7733 33.63 19.72C33.0487 18.6541 32.759 17.4537 32.79 16.24C32.7508 14.9346 33.133 13.6513 33.88 12.58C34.6296 11.558 35.596 10.7145 36.71 10.11C37.9584 9.43117 39.3097 8.96161 40.71 8.72001C42.1702 8.44109 43.6534 8.30047 45.14 8.30001C50.5067 8.30001 54.9 9.53334 58.32 12V2.14001C55.4067 0.713344 50.8 1.02356e-05 44.5 1.02356e-05C41.746 -0.00213746 39.0022 0.333706 36.33 1.00001C33.8039 1.58972 31.3964 2.60414 29.21 4.00001C27.1809 5.32747 25.4729 7.09013 24.21 9.16001C22.9085 11.397 22.2574 13.953 22.33 16.54C22.2815 18.5962 22.663 20.6398 23.45 22.54C24.1871 24.2438 25.2234 25.8018 26.51 27.14C27.8859 28.5629 29.4307 29.8122 31.11 30.86C32.87 31.98 34.7733 33.0833 36.82 34.17C38.72 35.0367 40.5033 35.87 42.17 36.67C43.685 37.3847 45.1398 38.2207 46.52 39.17C47.6213 39.9342 48.5736 40.8933 49.33 42C50.0247 43.1135 50.3728 44.4083 50.33 45.72C50.4034 46.9141 50.1655 48.1067 49.6396 49.1812C49.1137 50.2557 48.3179 51.1753 47.33 51.85C45.2767 53.25 42.15 53.95 37.95 53.95C36.6082 53.9396 35.2698 53.8125 33.95 53.57C32.5006 53.3114 31.0706 52.9539 29.67 52.5C28.2902 52.0496 26.9519 51.4808 25.67 50.8C24.464 50.1896 23.3414 49.4267 22.33 48.53V58.82C23.3661 59.4368 24.479 59.9143 25.64 60.24C27.0757 60.6774 28.5346 61.0346 30.01 61.31C31.55 61.61 33.01 61.83 34.52 61.99C36.03 62.15 37.23 62.22 38.24 62.22C41.1297 62.2306 44.0124 61.9356 46.84 61.34C49.3903 60.8201 51.8281 59.8517 54.04 58.48C56.1007 57.2084 57.8176 55.4503 59.04 53.36C60.3371 50.9956 60.9727 48.3252 60.88 45.63C60.9159 43.5446 60.4961 41.4764 59.65 39.57C58.8233 37.7785 57.701 36.1389 56.33 34.72V34.72Z" fill="black"/>
<path d="M103.09 34.72C101.61 33.2048 99.9631 31.8628 98.18 30.72C96.3067 29.52 94.3233 28.3733 92.23 27.28C90.19 26.38 88.3933 25.5467 86.84 24.78C85.4547 24.1105 84.1327 23.3172 82.89 22.41C81.8996 21.6884 81.0661 20.7733 80.44 19.72C79.8587 18.6541 79.569 17.4537 79.6 16.24C79.5608 14.9346 79.943 13.6513 80.69 12.58C81.4395 11.558 82.406 10.7145 83.52 10.11C84.7529 9.43626 86.0869 8.96684 87.47 8.72C88.9302 8.44108 90.4134 8.30046 91.9 8.3C97.2733 8.3 101.667 9.53333 105.08 12V2.14C102.2 0.713333 97.6167 0 91.33 0C88.586 0.000302442 85.8524 0.336128 83.19 1C80.6639 1.58971 78.2564 2.60413 76.07 4C74.0409 5.32746 72.3329 7.09012 71.07 9.16C69.7598 11.391 69.0983 13.9435 69.16 16.53C69.1115 18.5862 69.493 20.6298 70.28 22.53C71.017 24.2338 72.0534 25.7917 73.34 27.13C74.7159 28.5529 76.2607 29.8022 77.94 30.85C79.7 31.97 81.6033 33.0733 83.65 34.16C85.55 35.0267 87.3333 35.86 89 36.66C90.5131 37.3723 91.9647 38.2085 93.34 39.16C94.4472 39.9245 95.4033 40.8874 96.16 42C96.8547 43.1135 97.2028 44.4083 97.16 45.72C97.2166 46.9158 96.9616 48.1058 96.4199 49.1734C95.8782 50.241 95.0685 51.1495 94.07 51.81C92.0433 53.27 88.9267 54 84.72 54C83.3949 53.9867 82.0733 53.8596 80.77 53.62C79.3206 53.3614 77.8906 53.0039 76.49 52.55C75.1102 52.0995 73.7719 51.5308 72.49 50.85C71.2998 50.2336 70.1913 49.471 69.19 48.58V58.82C70.2307 59.4347 71.3467 59.912 72.51 60.24C73.9457 60.6774 75.4046 61.0346 76.88 61.31C78.42 61.61 79.88 61.83 81.39 61.99C82.9 62.15 84.1 62.22 85.11 62.22C87.9997 62.2306 90.8823 61.9356 93.71 61.34C96.2603 60.8201 98.6981 59.8517 100.91 58.48C102.971 57.2084 104.688 55.4502 105.91 53.36C107.207 50.9956 107.843 48.3252 107.75 45.63C107.786 43.5446 107.366 41.4764 106.52 39.57C105.66 37.7705 104.5 36.1304 103.09 34.72V34.72Z" fill="black"/>
<path d="M181.39 1.07007V2.07007L159.85 24.3301L149.03 1.22007L149.09 1.07007H137.17L137.24 1.22007L109.18 61.1401H120.96L121.29 60.4401L160.51 50.9101L165.33 61.1401H177.12L168.52 42.7901L181.33 11.8601L181.09 61.1401H192.87L193.17 1.07007H181.39ZM173 15.1801L162.91 30.8801L161.25 27.3301L173 15.1801ZM143.13 13.8001L151.61 31.9101L125.22 52.0501L143.13 13.8001ZM152.95 34.8001L155.03 39.2401L130.16 52.2401L152.95 34.8001ZM132.19 54.6101L156.33 42.0001L159.15 48.0001L132.19 54.6101ZM166.72 39.0001L164.46 34.1901L176.46 15.5101L166.72 39.0001Z" fill="black"/>
</svg>
